<svg preserveAspectRatio="none" viewBox="0 0 1000 100" xmlns="http://www.w3.org/2000/svg"><g fill="#000"><path class="svg-white-bg" d="M0 53.5c128.678-36.401 245.331-54.234 349.961-53.5 156.944 1.101 234.067 60.136 379.9 60.136 97.222 0 187.269-11.379 270.139-34.138v70.698h-154.167c-121.79 0-291.959-43.196-469.65-43.196-118.46 0-243.855 15.5-376.184 46.5v-46.5z" fill-opacity=".6"/><path class="svg-white-bg" d="M0 19.708c60.082-13.285 136.626-19.562 229.63-18.832 139.506 1.095 289.506 52.774 419.136 52.774 86.42 0 203.498-17.883 351.235-53.65v70.292c-178.189 13.977-300 18.41-365.432 13.301-98.148-7.664-181.559-37.169-339.506-37.169-105.298 0-203.652 14.526-295.062 43.577v-70.292z"/></g></svg>