<svg class="mesmerize" preserveAspectRatio="none" width="1000" height="100" viewBox="0 0 1000 100" xmlns="http://www.w3.org/2000/svg"><desc>Created with Sketch.</desc><g fill="#000"><path class="svg-white-bg" d="M0 0c12.924 53.49 60.965 80.234 144.121 80.234 214.375 0 435.063-80.234 627.719-80.234 85.01 0 161.064 26.745 228.16 80.234v19.766h-1000v-100z" opacity=".3"/><path class="svg-white-bg" d="M0 0c12.924 57.49 60.965 86.234 144.121 86.234 214.375 0 435.063-76.234 627.719-76.234 85.01 0 161.064 24.078 228.16 72.234v17.766h-1000v-100z" opacity=".6"/><path class="svg-white-bg" d="M0 20c14.859 48.667 63.867 73 147.023 73 214.375 0 462.258-67.504 654.914-67.504 64.717 0 130.738 19.246 198.063 57.738v16.766h-1000v-80z" opacity=".5"/></g></svg>